<svg width="22" height="29" viewBox="0 0 22 29" fill="none" xmlns="http://www.w3.org/2000/svg">
    <style>
        path {
            fill: #FFA100;
        }
        <!--
                @media (prefers-color-scheme: dark) {
                path: {
                    fill: yellow;
                    fill: currentColor;
                }
                }
        -->
    </style>
    <path d="M9.90601 11.5983C10.2365 11.2679 10.2365 10.7321 9.90601 10.4017C9.57557 10.0712 9.03981 10.0712 8.70937 10.4017L5.92308 13.188L4.82909 12.094C4.49865 11.7635 3.96289 11.7635 3.63245 12.094C3.302 12.4244 3.302 12.9602 3.63245 13.2906L5.20509 14.8633C5.60162 15.2598 6.24453 15.2598 6.64106 14.8633L9.90601 11.5983Z"/>
    <path d="M9.90601 16.6752C10.2365 16.3448 10.2365 15.809 9.90601 15.4786C9.57557 15.1482 9.03981 15.1482 8.70937 15.4786L5.92308 18.2649L4.82909 17.1709C4.49865 16.8405 3.96289 16.8405 3.63245 17.1709C3.302 17.5014 3.302 18.0371 3.63245 18.3675L5.20509 19.9402C5.60162 20.3367 6.24453 20.3367 6.64106 19.9402L9.90601 16.6752Z"/>
    <path d="M9.90601 20.5555C10.2365 20.886 10.2365 21.4217 9.90601 21.7522L6.64106 25.0171C6.24453 25.4136 5.60162 25.4136 5.20509 25.0171L3.63245 23.4445C3.302 23.114 3.302 22.5783 3.63245 22.2478C3.96289 21.9174 4.49865 21.9174 4.82909 22.2478L5.92308 23.3418L8.70937 20.5555C9.03981 20.2251 9.57557 20.2251 9.90601 20.5555Z"/>
    <path d="M12.6923 22H17.7692C18.2365 22 18.6154 22.3788 18.6154 22.8461C18.6154 23.3135 18.2365 23.6923 17.7692 23.6923H12.6923C12.225 23.6923 11.8462 23.3135 11.8462 22.8461C11.8462 22.3788 12.225 22 12.6923 22Z"/>
    <path d="M11.8462 17.7692C11.8462 17.3019 12.225 16.9231 12.6923 16.9231H17.7692C18.2365 16.9231 18.6154 17.3019 18.6154 17.7692C18.6154 18.2365 18.2365 18.6154 17.7692 18.6154H12.6923C12.225 18.6154 11.8462 18.2365 11.8462 17.7692Z"/>
    <path d="M11.8462 12.6923C11.8462 12.225 12.225 11.8462 12.6923 11.8462H17.7692C18.2365 11.8462 18.6154 12.225 18.6154 12.6923C18.6154 13.1596 18.2365 13.5385 17.7692 13.5385H12.6923C12.225 13.5385 11.8462 13.1596 11.8462 12.6923Z"/>
    <path d="M11 5.07692C11.4673 5.07692 11.8462 4.69809 11.8462 4.23077C11.8462 3.76345 11.4673 3.38461 11 3.38461C10.5327 3.38461 10.1538 3.76345 10.1538 4.23077C10.1538 4.69809 10.5327 5.07692 11 5.07692Z"/>
    <path fill-rule="evenodd" clip-rule="evenodd"
          d="M7.32018 1.92279C7.60269 0.792755 8.61803 0 9.78285 0H12.2171C13.382 0 14.3973 0.792754 14.6798 1.92279L15.0453 3.38461H16.2462C17.3194 3.38461 18.226 4.09826 18.5173 5.07692H19.4615C20.8635 5.07692 22 6.21343 22 7.61538V26.2308C22 27.6327 20.8635 28.7692 19.4615 28.7692H2.53846C1.13651 28.7692 0 27.6327 0 26.2308V7.61538C0 6.21343 1.13651 5.07692 2.53846 5.07692H3.52906C3.87754 4.09099 4.81781 3.38461 5.92308 3.38461H6.95473L7.32018 1.92279ZM18.6154 7.44615V6.76923H19.4615C19.9289 6.76923 20.3077 7.14807 20.3077 7.61538V26.2308C20.3077 26.6981 19.9289 27.0769 19.4615 27.0769H2.53846C2.07114 27.0769 1.69231 26.6981 1.69231 26.2308V7.61538C1.69231 7.14807 2.07114 6.76923 2.53846 6.76923H3.38462V7.44615C3.38462 8.00693 3.83922 8.46154 4.4 8.46154H17.6C18.1608 8.46154 18.6154 8.00693 18.6154 7.44615ZM9.78285 1.69231C9.39458 1.69231 9.05613 1.95656 8.96196 2.33324L8.47153 4.29499C8.35664 4.75454 7.94373 5.07692 7.47004 5.07692H5.92308C5.45576 5.07692 5.07692 5.45576 5.07692 5.92308V6.76923H16.9231V5.75385C16.9231 5.37999 16.62 5.07692 16.2462 5.07692H14.5167C14.0508 5.07692 13.6447 4.75982 13.5317 4.3078L13.038 2.33324C12.9439 1.95656 12.6054 1.69231 12.2171 1.69231H9.78285Z"/>
</svg>
